<svg width="84" height="24" viewBox="0 0 84 24" fill="none" xmlns="http://www.w3.org/2000/svg">
<path d="M35.7235 17.1233C35.7235 18.3505 35.2765 19.2937 34.3826 19.9528C33.4887 20.6043 32.2083 20.9301 30.5417 20.9301C28.8674 20.9301 27.5227 20.6763 26.5076 20.1687V17.8619C27.9849 18.5437 29.3599 18.8846 30.6326 18.8846C32.2765 18.8846 33.0985 18.3884 33.0985 17.396C33.0985 17.0778 33.0076 16.8127 32.8258 16.6005C32.644 16.3884 32.3447 16.1687 31.928 15.9415C31.5114 15.7142 30.9318 15.4566 30.1894 15.1687C28.7424 14.6081 27.7614 14.0475 27.2462 13.4869C26.7387 12.9263 26.4849 12.199 26.4849 11.3051C26.4849 10.2293 26.9167 9.396 27.7803 8.80509C28.6515 8.2066 29.8333 7.90736 31.3258 7.90736C32.803 7.90736 34.2008 8.2066 35.519 8.80509L34.6553 10.8165C33.2993 10.2558 32.1591 9.97554 31.2349 9.97554C29.8258 9.97554 29.1212 10.3771 29.1212 11.1801C29.1212 11.574 29.303 11.9074 29.6667 12.1801C30.0379 12.4528 30.8409 12.8278 32.0758 13.3051C33.1137 13.7066 33.8674 14.074 34.3371 14.4074C34.8068 14.7407 35.1553 15.1271 35.3826 15.5665C35.6099 15.9983 35.7235 16.5172 35.7235 17.1233Z" fill="black"/>
<path d="M43.303 18.771C43.9546 18.771 44.6061 18.6687 45.2576 18.4642V20.4755C44.9621 20.6043 44.5796 20.7104 44.1099 20.7937C43.6477 20.8846 43.1667 20.9301 42.6667 20.9301C40.1364 20.9301 38.8712 19.5968 38.8712 16.9301V10.1574H37.1553V8.97554L38.9962 7.99827L39.9053 5.33918H41.553V8.13463H45.1326V10.1574H41.553V16.8846C41.553 17.5286 41.7121 18.0058 42.0303 18.3165C42.3561 18.6195 42.7803 18.771 43.303 18.771Z" fill="black"/>
<path d="M58.928 14.396C58.928 16.449 58.4015 18.0513 57.3485 19.2028C56.2955 20.3543 54.8296 20.9301 52.9508 20.9301C51.7765 20.9301 50.7386 20.6649 49.8371 20.1346C48.9356 19.6043 48.2424 18.843 47.7576 17.8505C47.2727 16.8581 47.0303 15.7066 47.0303 14.396C47.0303 12.3581 47.553 10.7672 48.5985 9.62327C49.644 8.47933 51.1174 7.90736 53.019 7.90736C54.8371 7.90736 56.2765 8.49448 57.3371 9.66872C58.3977 10.8354 58.928 12.4111 58.928 14.396ZM49.7803 14.396C49.7803 17.2975 50.8523 18.7483 52.9962 18.7483C55.1174 18.7483 56.178 17.2975 56.178 14.396C56.178 11.5248 55.1099 10.0892 52.9735 10.0892C51.8523 10.0892 51.0379 10.4604 50.5303 11.2028C50.0303 11.9452 49.7803 13.0096 49.7803 14.396Z" fill="black"/>
<path d="M68.3826 7.90736C68.9205 7.90736 69.3636 7.94524 69.7121 8.021L69.4508 10.5096C69.072 10.4187 68.678 10.3733 68.269 10.3733C67.2008 10.3733 66.3333 10.7218 65.6667 11.4187C65.0076 12.1157 64.678 13.021 64.678 14.1346V20.7028H62.0076V8.13463H64.0985L64.4508 10.3505H64.5871C65.0038 9.60054 65.5455 9.00584 66.2121 8.56645C66.8864 8.12706 67.6099 7.90736 68.3826 7.90736Z" fill="black"/>
<path d="M74.6326 14.0665L76.144 12.1801L79.9394 8.13463H83.019L77.9621 13.5324L83.3371 20.7028H80.2008L76.1667 15.1915L74.7008 16.396V20.7028H72.053V3.021H74.7008V11.646L74.5644 14.0665H74.6326Z" fill="black"/>
<path d="M16.7357 23.8692C16.4726 23.869 16.213 23.8092 15.9762 23.6941C15.7392 23.5791 15.5312 23.4118 15.3674 23.2047C14.8608 22.6543 10.945 18.7853 8.54557 16.4264C8.37951 16.2653 8.24675 16.0729 8.15495 15.86C8.06315 15.6472 8.01412 15.4182 8.01067 15.1862C8.00724 14.9542 8.04945 14.7238 8.13489 14.5082C8.22034 14.2927 8.34733 14.0964 8.50853 13.9304C8.66974 13.7645 8.86199 13.6323 9.07421 13.5414C9.28643 13.4505 9.51442 13.4028 9.74506 13.4009C9.97571 13.399 10.2044 13.4431 10.4181 13.5305C10.6317 13.618 10.826 13.7471 10.9899 13.9105C11.007 13.9273 12.7351 15.6264 14.4503 17.3237L14.9877 17.8557V9.59359C14.9877 6.38052 12.4105 3.76647 9.24242 3.76647C6.07438 3.76647 3.49713 6.38052 3.49713 9.59359V22.1101C3.49713 22.5766 3.3129 23.024 2.98499 23.3539C2.65707 23.6837 2.21231 23.869 1.74856 23.869C1.28481 23.869 0.840063 23.6837 0.512143 23.3539C0.184224 23.024 0 22.5766 0 22.1101V9.59359C0 4.44067 4.14612 0.248535 9.24242 0.248535C14.3387 0.248535 18.4848 4.44067 18.4848 9.59359V22.1101C18.4846 22.5766 18.3003 23.024 17.9723 23.354C17.6443 23.6838 17.1995 23.8691 16.7357 23.8692ZM15.146 22.841L15.1468 22.8425L15.146 22.841Z" fill="black"/>
<path d="M9.24155 11.2861C10.3452 11.2861 11.2399 10.3862 11.2399 9.2759C11.2399 8.16566 10.3452 7.26562 9.24155 7.26562C8.13787 7.26562 7.24316 8.16566 7.24316 9.2759C7.24316 10.3862 8.13787 11.2861 9.24155 11.2861Z" fill="#EE7200"/>
</svg>
